<svg width="20" height="20" viewBox="0 0 18 18" fill="none" xmlns="http://www.w3.org/2000/svg">
<path fill-rule="evenodd" clip-rule="evenodd" d="M4.99984 0.5C5.27598 0.5 5.49984 0.723858 5.49984 1V2H12.4998V1C12.4998 0.723858 12.7237 0.5 12.9998 0.5C13.276 0.5 13.4998 0.723858 13.4998 1V2H15.8332C16.6616 2 17.3332 2.67157 17.3332 3.5V15.8333C17.3332 16.6618 16.6616 17.3333 15.8332 17.3333H2.1665C1.33808 17.3333 0.666504 16.6618 0.666504 15.8333V3.5C0.666504 2.67157 1.33808 2 2.1665 2H4.49984V1C4.49984 0.723858 4.72369 0.5 4.99984 0.5ZM12.4998 3V3.66667C12.4998 3.94281 12.7237 4.16667 12.9998 4.16667C13.276 4.16667 13.4998 3.94281 13.4998 3.66667V3H15.8332C16.1093 3 16.3332 3.22386 16.3332 3.5V6H1.6665V3.5C1.6665 3.22386 1.89036 3 2.1665 3H4.49984V3.66667C4.49984 3.94281 4.72369 4.16667 4.99984 4.16667C5.27598 4.16667 5.49984 3.94281 5.49984 3.66667V3H12.4998ZM1.6665 7V15.8333C1.6665 16.1095 1.89036 16.3333 2.1665 16.3333H15.8332C16.1093 16.3333 16.3332 16.1095 16.3332 15.8333V7H1.6665ZM8.33317 8.83333C8.33317 8.55719 8.55703 8.33333 8.83317 8.33333H9.1665C9.44265 8.33333 9.6665 8.55719 9.6665 8.83333V9.16667C9.6665 9.44281 9.44265 9.66667 9.1665 9.66667H8.83317C8.55703 9.66667 8.33317 9.44281 8.33317 9.16667V8.83333ZM11.4998 8.33333C11.2237 8.33333 10.9998 8.55719 10.9998 8.83333V9.16667C10.9998 9.44281 11.2237 9.66667 11.4998 9.66667H11.8332C12.1093 9.66667 12.3332 9.44281 12.3332 9.16667V8.83333C12.3332 8.55719 12.1093 8.33333 11.8332 8.33333H11.4998ZM13.6665 8.83333C13.6665 8.55719 13.8904 8.33333 14.1665 8.33333H14.4998C14.776 8.33333 14.9998 8.55719 14.9998 8.83333V9.16667C14.9998 9.44281 14.776 9.66667 14.4998 9.66667H14.1665C13.8904 9.66667 13.6665 9.44281 13.6665 9.16667V8.83333ZM14.1665 11C13.8904 11 13.6665 11.2239 13.6665 11.5V11.8333C13.6665 12.1095 13.8904 12.3333 14.1665 12.3333H14.4998C14.776 12.3333 14.9998 12.1095 14.9998 11.8333V11.5C14.9998 11.2239 14.776 11 14.4998 11H14.1665ZM10.9998 11.5C10.9998 11.2239 11.2237 11 11.4998 11H11.8332C12.1093 11 12.3332 11.2239 12.3332 11.5V11.8333C12.3332 12.1095 12.1093 12.3333 11.8332 12.3333H11.4998C11.2237 12.3333 10.9998 12.1095 10.9998 11.8333V11.5ZM8.83317 11C8.55703 11 8.33317 11.2239 8.33317 11.5V11.8333C8.33317 12.1095 8.55703 12.3333 8.83317 12.3333H9.1665C9.44265 12.3333 9.6665 12.1095 9.6665 11.8333V11.5C9.6665 11.2239 9.44265 11 9.1665 11H8.83317ZM5.6665 11.5C5.6665 11.2239 5.89036 11 6.1665 11H6.49984C6.77598 11 6.99984 11.2239 6.99984 11.5V11.8333C6.99984 12.1095 6.77598 12.3333 6.49984 12.3333H6.1665C5.89036 12.3333 5.6665 12.1095 5.6665 11.8333V11.5ZM3.49984 11C3.22369 11 2.99984 11.2239 2.99984 11.5V11.8333C2.99984 12.1095 3.2237 12.3333 3.49984 12.3333H3.83317C4.10931 12.3333 4.33317 12.1095 4.33317 11.8333V11.5C4.33317 11.2239 4.10931 11 3.83317 11H3.49984ZM2.99984 14.1667C2.99984 13.8905 3.22369 13.6667 3.49984 13.6667H3.83317C4.10931 13.6667 4.33317 13.8905 4.33317 14.1667V14.5C4.33317 14.7761 4.10931 15 3.83317 15H3.49984C3.2237 15 2.99984 14.7761 2.99984 14.5V14.1667ZM6.1665 13.6667C5.89036 13.6667 5.6665 13.8905 5.6665 14.1667V14.5C5.6665 14.7761 5.89036 15 6.1665 15H6.49984C6.77598 15 6.99984 14.7761 6.99984 14.5V14.1667C6.99984 13.8905 6.77598 13.6667 6.49984 13.6667H6.1665ZM8.33317 14.1667C8.33317 13.8905 8.55703 13.6667 8.83317 13.6667H9.1665C9.44265 13.6667 9.6665 13.8905 9.6665 14.1667V14.5C9.6665 14.7761 9.44265 15 9.1665 15H8.83317C8.55703 15 8.33317 14.7761 8.33317 14.5V14.1667ZM11.4998 13.6667C11.2237 13.6667 10.9998 13.8905 10.9998 14.1667V14.5C10.9998 14.7761 11.2237 15 11.4998 15H11.8332C12.1093 15 12.3332 14.7761 12.3332 14.5V14.1667C12.3332 13.8905 12.1093 13.6667 11.8332 13.6667H11.4998Z" fill="#0081F1"/>
</svg>
