<svg width="15" height="15" viewBox="0 0 15 15" fill="#687076" xmlns="http://www.w3.org/2000/svg" class="svg-fill-all"><path fill-rule="evenodd" clip-rule="evenodd" d="M11.7814 4.03157C12.0059 3.80702 12.0059 3.44295 11.7814 3.2184C11.5568 2.99385 11.1928 2.99385 10.9682 3.2184L7.4998 6.68682L4.03139 3.2184C3.80684 2.99385 3.44277 2.99385 3.21822 3.2184C2.99367 3.44295 2.99367 3.80702 3.21822 4.03157L6.68663 7.49999L3.21822 10.9684C2.99367 11.193 2.99367 11.557 3.21822 11.7816C3.44277 12.0061 3.80684 12.0061 4.03139 11.7816L7.4998 8.31316L10.9682 11.7816C11.1928 12.0061 11.5568 12.0061 11.7814 11.7816C12.0059 11.557 12.0059 11.193 11.7814 10.9684L8.31298 7.49999L11.7814 4.03157Z" fill="black"></path></svg>