<svg width="13" height="14" viewBox="0 0 13 14" fill="none" xmlns="http://www.w3.org/2000/svg">
<path fill-rule="evenodd" clip-rule="evenodd" d="M12.5002 13.4492C12.7487 13.4492 12.9502 13.2477 12.9502 12.9992C12.9502 12.7507 12.7487 12.5492 12.5002 12.5492L0.500196 12.5492C0.251667 12.5492 0.0501948 12.7507 0.0501948 12.9992C0.0501948 13.2477 0.251667 13.4492 0.500195 13.4492L12.5002 13.4492ZM10.0684 7.06757C10.2441 6.89184 10.2441 6.60691 10.0684 6.43118C9.89263 6.25544 9.60771 6.25544 9.43197 6.43118L6.95017 8.91298L6.95017 0.999252C6.95017 0.750723 6.7487 0.549252 6.50017 0.549252C6.25164 0.549252 6.05017 0.750724 6.05017 0.999252L6.05017 8.91298L3.56837 6.43118C3.39263 6.25544 3.10771 6.25544 2.93197 6.43118C2.75624 6.60691 2.75624 6.89184 2.93197 7.06757L6.18197 10.3176C6.35771 10.4933 6.64263 10.4933 6.81837 10.3176L10.0684 7.06757Z" fill="#30A46C"/>
</svg>
