<svg width="12" height="11" viewBox="0 0 12 11" fill="none" xmlns="http://www.w3.org/2000/svg">
<path fill-rule="evenodd" clip-rule="evenodd" d="M5.31042 1.60967C5.51871 1.4014 5.51871 1.06371 5.31042 0.855435C5.10215 0.647147 4.76446 0.647147 4.55618 0.855435L0.289517 5.1221C0.0812288 5.33038 0.0812288 5.66806 0.289517 5.87634L4.55618 10.1431C4.76446 10.3513 5.10215 10.3513 5.31042 10.1431C5.51871 9.93474 5.51871 9.59704 5.31042 9.38872L1.42089 5.49922L5.31042 1.60967ZM11.7105 1.60967C11.9187 1.4014 11.9187 1.06371 11.7105 0.855435C11.5022 0.647147 11.1645 0.647147 10.9561 0.855435L6.68952 5.1221C6.48123 5.33038 6.48123 5.66806 6.68952 5.87634L10.9561 10.1431C11.1645 10.3513 11.5022 10.3513 11.7105 10.1431C11.9187 9.93474 11.9187 9.59704 11.7105 9.38872L7.82089 5.49922L11.7105 1.60967Z" fill="#687076"/>
</svg>
