<svg width="12" height="11" viewBox="0 0 12 11" fill="none" xmlns="http://www.w3.org/2000/svg">
<path fill-rule="evenodd" clip-rule="evenodd" d="M0.289517 9.38872C0.0812288 9.59704 0.0812288 9.93474 0.289517 10.1431C0.497794 10.3513 0.835479 10.3513 1.04376 10.1431L5.31042 5.87634C5.51871 5.66806 5.51871 5.33038 5.31042 5.1221L1.04376 0.855435C0.835479 0.647147 0.497794 0.647147 0.289517 0.855435C0.0812288 1.06371 0.0812288 1.4014 0.289517 1.60967L4.17905 5.49922L0.289517 9.38872ZM6.68952 9.38872C6.48123 9.59704 6.48123 9.93474 6.68952 10.1431C6.89779 10.3513 7.23548 10.3513 7.44376 10.1431L11.7105 5.87634C11.9187 5.66806 11.9187 5.33038 11.7105 5.1221L7.44376 0.855435C7.23548 0.647147 6.89779 0.647147 6.68952 0.855435C6.48123 1.06371 6.48123 1.4014 6.68952 1.60967L10.5791 5.49922L6.68952 9.38872Z" fill="#687076"/>
</svg>
