<svg width="22" height="22" viewBox="0 0 22 22" fill="none" xmlns="http://www.w3.org/2000/svg"><g clip-path="url(#clip0_256_19180)"><path d="M20.1667 10.1567V11C20.1656 12.9767 19.5255 14.9001 18.3419 16.4833C17.1584 18.0666 15.4947 19.2248 13.5991 19.7852C11.7035 20.3457 9.67753 20.2784 7.82331 19.5934C5.96908 18.9083 4.38597 17.6423 3.31009 15.984C2.2342 14.3257 1.72318 12.3641 1.85324 10.3916C1.98331 8.41919 2.74748 6.54164 4.0318 5.03899C5.31611 3.53634 7.05176 2.48911 8.97988 2.05348C10.908 1.61784 12.9253 1.81715 14.7309 2.62168" stroke="#12A594" stroke-width="2" stroke-linecap="round" stroke-linejoin="round"></path><path d="M20.1667 3.66666L11 12.8425L8.25 10.0925" stroke="#12A594" stroke-width="2" stroke-linecap="round" stroke-linejoin="round"></path></g><defs><clipPath id="clip0_256_19180"><rect width="22" height="22" fill="white"></rect></clipPath></defs></svg>